<svg xmlns="http://www.w3.org/2000/svg" width="157" height="30" fill="none"><path d="M21.328 2.677A9.106 9.106 0 0014.858 0H2.112A2.113 2.113 0 000 2.113v6.446a2.11 2.11 0 104.221 0v-4.34H14.86a4.904 4.904 0 013.485 1.441c.224.229 4.052-1.916 2.983-2.983z" fill="url(#paint0_linear_214_667)"></path><path d="M20.7 27.308a2.104 2.104 0 01-1.6-.729l-5.205-6.01a2.11 2.11 0 01.212-2.97 2.113 2.113 0 012.97.215l5.205 6.01a2.112 2.112 0 01-.215 2.97 2.1 2.1 0 01-1.368.514z" fill="url(#paint1_linear_214_667)"></path><path d="M15.49 21.298a2.106 2.106 0 01-1.594-3.486l4.69-5.425a4.952 4.952 0 00-.244-6.722 2.11 2.11 0 011.492-3.604 2.11 2.11 0 011.493.619 9.187 9.187 0 01.457 12.471l-4.692 5.418a2.107 2.107 0 01-1.601.729z" fill="url(#paint2_linear_214_667)"></path><path d="M2.11 10.67A2.11 2.11 0 010 8.558V2.113A2.113 2.113 0 012.11 0a2.113 2.113 0 012.111 2.113v6.446a2.11 2.11 0 01-2.11 2.11z" fill="url(#paint3_linear_214_667)"></path><path d="M4.221 19.534l9.765-11.272a2.113 2.113 0 012.97-.215 2.113 2.113 0 01.212 2.97L3.69 26.57c-.393.482.53-7.036.53-7.036z" fill="url(#paint4_linear_214_667)"></path><path d="M2.11 27.308A2.11 2.11 0 010 25.197v-9.692a2.11 2.11 0 014.221 0v9.696a2.11 2.11 0 01-2.11 2.107z" fill="url(#paint5_linear_214_667)"></path><path d="M44.41 15.274c3.217-1.619 4.987-3.748 4.987-6.407 0-3.766-2.533-5.822-6.804-5.822H32.426v21.172h3.634V6.167h6.281c1.78 0 3.297 1.337 3.297 3.198 0 2.342-2.125 3.922-5.416 4.384a.685.685 0 00-.59.7.686.686 0 00.09.32l5.342 9.492h4.518l-5.367-8.881.196-.106zM58.631 8.796c-4.758 0-7.17 2.54-7.17 7.538 0 2.634.697 4.633 2.072 5.94 1.375 1.306 3.485 1.973 6.265 1.973a24.44 24.44 0 004.852-.416V22.65a1.34 1.34 0 00-.457-1.014 1.37 1.37 0 00-1.064-.318 25.325 25.325 0 01-3.027.183c-3.37 0-5.078-1.197-5.078-3.559v-.203h10.448c.073-.584.11-1.172.11-1.761-.005-4.77-2.341-7.182-6.951-7.182zm3.49 6.558h-7.117l.018-.228c.187-2.392 1.403-3.602 3.609-3.602 2.316 0 3.49 1.176 3.49 3.497v.333zM82.257 23.25V9.29a51.302 51.302 0 00-6.408-.494c-2.652 0-4.66.64-5.973 1.905-1.313 1.266-1.976 3.198-1.976 5.734 0 4.988 2.285 7.52 6.798 7.52a9.39 9.39 0 003.719-.74l.278-.122v.308c0 2.543-1.505 3.831-4.476 3.831a18.668 18.668 0 01-3.388-.295 1.33 1.33 0 00-1.46.757c-.083.18-.125.375-.125.573v1.032c1.601.488 3.269.724 4.943.7 5.352 0 8.068-2.271 8.068-6.748zm-3.674-3.05a7.604 7.604 0 01-3.426.835c-2.485 0-3.746-1.558-3.746-4.63 0-3.173 1.45-4.783 4.313-4.783 1.215 0 2.17.128 2.837.377l.13.048v8.095l-.108.057zM99.58 22.824c1.434-1.07 2.175-2.72 2.202-4.911.025-1.862-.617-3.426-1.857-4.495-1.188-1.033-2.864-1.6-4.847-1.62-2.581-.034-4.212-.457-4.989-1.27a2.057 2.057 0 01-.56-1.565c.078-2.407 1.494-3.236 5.204-3.236 1.565 0 2.755.351 4.059.763a.795.795 0 00.973-.457l.685-1.686a13.96 13.96 0 00-5.82-1.434c-3.038-.042-5.203.438-6.624 1.464-1.42 1.025-2.1 2.604-2.127 4.85-.027 1.998 1.108 4.435 4.365 5.269 2.095.537 4.676.523 4.786.52 1.025.014 1.807.293 2.318.825.512.532.715 1.204.704 2.097-.016 1.195-.43 2.056-1.268 2.609-.838.552-2.037.806-3.728.783a11.81 11.81 0 01-4.472-.866 1.37 1.37 0 00-1.745.64l-.832 1.599c1.9 1.064 4.384 1.667 7.01 1.701 2.904.032 5.11-.5 6.563-1.58zM116.108 9.212a17.809 17.809 0 00-3.838-.411c-2.725 0-4.797.623-6.144 1.855-1.348 1.23-2.026 3.101-2.026 5.573 0 2.675.685 4.703 2.033 6.03 1.347 1.327 3.426 2.001 6.137 2.001a17.66 17.66 0 003.838-.413v-1.142a1.366 1.366 0 00-.96-1.302 1.368 1.368 0 00-.573-.05c-.665.088-1.335.133-2.006.134-3.257 0-4.911-1.772-4.911-5.265 0-3.095 1.654-4.662 4.911-4.662a15.92 15.92 0 012.006.133 1.35 1.35 0 001.413-.791c.079-.176.12-.367.12-.56v-1.13zM123.628 24.256a7.588 7.588 0 004.401-1.384l.311-.215v.457a1.14 1.14 0 001.142 1.142h2.172V13.822c0-3.335-2.284-5.026-6.795-5.026a23.735 23.735 0 00-5.51.597v1.096a1.358 1.358 0 00.995 1.309c.19.051.39.06.584.025 1.3-.205 2.615-.292 3.931-.26 2.147 0 3.237.785 3.237 2.334v1.44l-.24-.047a17.036 17.036 0 00-3.162-.299c-4.39 0-6.624 1.524-6.624 4.527.003 3.19 1.821 4.738 5.558 4.738zm1.062-6.951a16.41 16.41 0 013.239.306l.162.032v2.81l-.084.061a6.295 6.295 0 01-3.781 1.277c-1.697 0-2.592-.802-2.592-2.318 0-1.44 1.028-2.168 3.056-2.168zM139.043 3.052h-3.559v21.202h3.559V3.052zM149.301 8.796c-4.758 0-7.17 2.54-7.17 7.538 0 2.636.685 4.633 2.069 5.94 1.385 1.306 3.486 1.973 6.266 1.973a24.433 24.433 0 004.851-.416v-1.19a1.32 1.32 0 00-.948-1.277 1.348 1.348 0 00-.559-.046 25.603 25.603 0 01-3.038.183c-3.367 0-5.076-1.197-5.076-3.559v-.203h10.446a14.4 14.4 0 00.11-1.761c-.007-4.77-2.344-7.182-6.951-7.182zm3.49 6.558h-7.117l.016-.228c.189-2.392 1.402-3.602 3.611-3.602 2.316 0 3.49 1.176 3.49 3.497v.333z" fill="#2C3044"></path><defs><linearGradient id="paint0_linear_214_667" x1="0" y1="5.336" x2="21.905" y2="5.336" gradientUnits="userSpaceOnUse"><stop stop-color="#2AA4CA"></stop><stop offset="1" stop-color="#1AA5B0"></stop></linearGradient><linearGradient id="paint1_linear_214_667" x1="13.381" y1="22.191" x2="22.81" y2="22.191" gradientUnits="userSpaceOnUse"><stop stop-color="#2D318D"></stop><stop offset="1" stop-color="#1A70AD"></stop></linearGradient><linearGradient id="paint2_linear_214_667" x1="18.691" y1="21.298" x2="18.691" y2="2.061" gradientUnits="userSpaceOnUse"><stop stop-color="#1A70AD"></stop><stop offset=".64" stop-color="#2AA4CA"></stop><stop offset="1" stop-color="#17A7C8"></stop></linearGradient><linearGradient id="paint3_linear_214_667" x1="2.111" y1="10.669" x2="2.111" y2="0" gradientUnits="userSpaceOnUse"><stop stop-color="#20A495"></stop><stop offset="1" stop-color="#1AA8C6"></stop></linearGradient><linearGradient id="paint4_linear_214_667" x1="10.646" y1="26.602" x2="10.646" y2="7.533" gradientUnits="userSpaceOnUse"><stop stop-color="#9E0E5D"></stop><stop offset=".5" stop-color="#EF5A23"></stop><stop offset="1" stop-color="#F3931F"></stop></linearGradient><linearGradient id="paint5_linear_214_667" x1="2.111" y1="27.308" x2="2.111" y2="13.395" gradientUnits="userSpaceOnUse"><stop stop-color="#F3931F"></stop><stop offset=".5" stop-color="#F8B03B"></stop><stop offset="1" stop-color="#F9CA2D"></stop></linearGradient></defs></svg>