{
  "asset": {
    "version": "2.0",
    "generator": "THREE.GLTFExporter"
  },
  "scenes": [
    {
      "nodes": [
        0
      ]
    }
  ],
  "scene": 0,
  "nodes": [
    {
      "children": [
        10
      ],
      "matrix": [
        0.01,
        0,
        0,
        0,
        0,
        0.01,
        0,
        0,
        0,
        0,
        0.01,
        0,
        0,
        0,
        0,
        1
      ]
    },
    {
      "matrix": [
        1,
        0,
        0,
        0,
        0,
        1,
        0,
        0,
        0,
        0,
        1,
        0,
        0.98468017578125,
        94.21080003015133,
        4.885608673095703,
        1
      ],
      "name": "Rock_03",
      "mesh": 0
    },
    {
      "matrix": [
        1,
        0,
        0,
        0,
        0,
        1,
        0,
        0,
        0,
        0,
        1,
        0,
        569.4462733465485,
        -6.470980378938123,
        0,
        1
      ],
      "name": "Rock_03",
      "children": [
        1
      ]
    },
    {
      "matrix": [
        1,
        0,
        0,
        0,
        0,
        1,
        0,
        0,
        0,
        0,
        1,
        0,
        1.1309170632073062,
        95.88891115893038,
        -7.904044311988102,
        1
      ],
      "name": "Stone_02",
      "mesh": 1
    },
    {
      "matrix": [
        -2.5499554770032673,
        3.1227948128803134e-16,
        -3.8243206719878335e-32,
        0,
        2.117213445570779e-16,
        1.7288359770709933,
        -2.1172134455707784e-16,
        0,
        -2.5654250786486773e-48,
        2.295828792786139e-16,
        1.8746864764474012,
        0,
        678.817052553359,
        -58.417720207922834,
        104.34205750125831,
        1
      ],
      "name": "Rock_02",
      "children": [
        3
      ]
    },
    {
      "matrix": [
        1,
        0,
        0,
        0,
        0,
        1,
        0,
        0,
        0,
        0,
        1,
        0,
        34.68940707636242,
        99.388533282214,
        -3.4301743857399742,
        1
      ],
      "name": "Rock_01",
      "mesh": 2
    },
    {
      "matrix": [
        1.7359389715689388,
        0,
        0,
        0,
        0,
        2.556046639710218,
        0,
        0,
        0,
        0,
        2.496597137832206,
        0,
        333.3952415104812,
        0.08867566488747514,
        833.438818808671,
        1
      ],
      "name": "Rock_01",
      "children": [
        5
      ]
    },
    {
      "matrix": [
        0.5559340442435244,
        0.4521596893180666,
        -0.6974876011850164,
        0,
        -0.6309819656366566,
        0.7757974987335942,
        0,
        0,
        0.5411091363970304,
        0.4401020976029181,
        0.7165968505325512,
        0,
        0,
        0,
        0,
        1
      ],
      "name": "Directional Light",
      "extensions": {
        "KHR_lights_punctual": {
          "light": 0
        }
      }
    },
    {
      "matrix": [
        1,
        0,
        0,
        0,
        0,
        1,
        -6.436762659472189e-17,
        0,
        0,
        6.436762659472189e-17,
        1,
        0,
        900.387340662411,
        139.63508546556542,
        3090.869603896138,
        1
      ],
      "camera": 0
    },
    {
      "matrix": [
        1,
        0,
        0,
        0,
        0,
        1,
        0,
        0,
        0,
        0,
        1,
        0,
        0,
        1,
        0,
        1
      ],
      "name": "Default Ambient Light"
    },
    {
      "name": "Scene 1",
      "children": [
        2,
        4,
        6,
        7,
        8,
        9
      ]
    }
  ],
  "bufferViews": [
    {
      "buffer": 0,
      "byteOffset": 0,
      "byteLength": 28416,
      "target": 34962,
      "byteStride": 12
    },
    {
      "buffer": 0,
      "byteOffset": 28416,
      "byteLength": 28416,
      "target": 34962,
      "byteStride": 12
    },
    {
      "buffer": 0,
      "byteOffset": 56832,
      "byteLength": 14208,
      "target": 34963
    },
    {
      "buffer": 0,
      "byteOffset": 71040,
      "byteLength": 28416,
      "target": 34962,
      "byteStride": 12
    },
    {
      "buffer": 0,
      "byteOffset": 99456,
      "byteLength": 28416,
      "target": 34962,
      "byteStride": 12
    },
    {
      "buffer": 0,
      "byteOffset": 127872,
      "byteLength": 14208,
      "target": 34963
    },
    {
      "buffer": 0,
      "byteOffset": 142080,
      "byteLength": 27648,
      "target": 34962,
      "byteStride": 12
    },
    {
      "buffer": 0,
      "byteOffset": 169728,
      "byteLength": 27648,
      "target": 34962,
      "byteStride": 12
    },
    {
      "buffer": 0,
      "byteOffset": 197376,
      "byteLength": 13824,
      "target": 34963
    }
  ],
  "buffers": [
    {
      "byteLength": 211200,
      "uri": "data:application/octet-stream;base64,"
    }
  ],
  "accessors": [
    {
      "bufferView": 0,
      "componentType": 5126,
      "count": 2368,
      "max": [
        124.13285827636719,
        66.39936065673828,
        94.92835235595703
      ],
      "min": [
        -126.6845703125,
        -95.78949737548828,
        -104.58465576171875
      ],
      "type": "VEC3"
    },
    {
      "bufferView": 1,
      "componentType": 5126,
      "count": 2368,
      "max": [
        0.9844498634338379,
        0.9997568130493164,
        0.993800938129425
      ],
      "min": [
        -0.9910940527915955,
        -0.9871804714202881,
        -0.9873218536376953
      ],
      "type": "VEC3"
    },
    {
      "bufferView": 2,
      "componentType": 5125,
      "count": 3552,
      "max": [
        2367
      ],
      "min": [
        0
      ],
      "type": "SCALAR"
    },
    {
      "bufferView": 3,
      "componentType": 5126,
      "count": 2368,
      "max": [
        104.43133544921875,
        93.56156158447266,
        109.15846252441406
      ],
      "min": [
        -107.80648803710938,
        -98.20561218261719,
        -94.79740905761719
      ],
      "type": "VEC3"
    },
    {
      "bufferView": 4,
      "componentType": 5126,
      "count": 2368,
      "max": [
        0.9847365021705627,
        0.9990512132644653,
        0.9830011129379272
      ],
      "min": [
        -0.9967478513717651,
        -0.980485737323761,
        -0.9999595284461975
      ],
      "type": "VEC3"
    },
    {
      "bufferView": 5,
      "componentType": 5125,
      "count": 3552,
      "max": [
        2367
      ],
      "min": [
        0
      ],
      "type": "SCALAR"
    },
    {
      "bufferView": 6,
      "componentType": 5126,
      "count": 2304,
      "max": [
        56.37055969238281,
        98.03020477294922,
        97.4190673828125
      ],
      "min": [
        -126.841064453125,
        -102.57249450683594,
        -93.87165832519531
      ],
      "type": "VEC3"
    },
    {
      "bufferView": 7,
      "componentType": 5126,
      "count": 2304,
      "max": [
        0.992110013961792,
        0.9967690706253052,
        0.9628762006759644
      ],
      "min": [
        -0.9913244843482971,
        -0.9996414184570312,
        -0.9961480498313904
      ],
      "type": "VEC3"
    },
    {
      "bufferView": 8,
      "componentType": 5125,
      "count": 3456,
      "max": [
        2303
      ],
      "min": [
        0
      ],
      "type": "SCALAR"
    }
  ],
  "meshes": [
    {
      "primitives": [
        {
          "mode": 4,
          "attributes": {
            "POSITION": 0,
            "NORMAL": 1
          },
          "extras": {
            "type": "SubdivGeometry",
            "parameters": {
              "width": 255.15234375,
              "height": 164.6837615966797,
              "depth": 212.08374786376953
            }
          },
          "indices": 2
        }
      ]
    },
    {
      "primitives": [
        {
          "mode": 4,
          "attributes": {
            "POSITION": 3,
            "NORMAL": 4
          },
          "extras": {
            "type": "SubdivGeometry",
            "parameters": {
              "width": 227.25936126708984,
              "height": 199.76656341552734,
              "depth": 209.63400268554688
            }
          },
          "indices": 5
        }
      ]
    },
    {
      "primitives": [
        {
          "mode": 4,
          "attributes": {
            "POSITION": 6,
            "NORMAL": 7
          },
          "extras": {
            "type": "SubdivGeometry",
            "parameters": {
              "width": 189.93492889404297,
              "height": 202.77640533447266,
              "depth": 196.7563018798828
            }
          },
          "indices": 8
        }
      ]
    }
  ],
  "extensions": {
    "KHR_lights_punctual": {
      "lights": [
        {
          "name": "Directional Light",
          "color": [
            1,
            1,
            1
          ],
          "intensity": 0.7,
          "type": "directional"
        }
      ]
    }
  },
  "cameras": [
    {
      "type": "perspective",
      "perspective": {
        "aspectRatio": 2.7065302911093627,
        "yfov": 0.7853981633974483,
        "zfar": 100000,
        "znear": 70
      }
    }
  ],
  "extensionsUsed": [
    "KHR_lights_punctual"
  ]
}